<svg id="Layer_1" data-name="Layer 1" xmlns="http://www.w3.org/2000/svg" xmlns:xlink="http://www.w3.org/1999/xlink" viewBox="0 0 22.68 22.68"><defs><style>.cls-1{fill:none;}.cls-2{clip-path:url(#clip-path);}.cls-3{fill:#fff;}</style><clipPath id="clip-path"><rect class="cls-1" x="1.42" y="1.42" width="19.84" height="19.84"/></clipPath></defs><g class="cls-2"><g id="Instagram"><path id="Path_2" data-name="Path 2" class="cls-3" d="M15.06,1.42H7.62a6.19,6.19,0,0,0-6.2,6.2v7.44a6.2,6.2,0,0,0,6.2,6.2h7.44a6.21,6.21,0,0,0,6.2-6.2V7.62A6.2,6.2,0,0,0,15.06,1.42ZM19.4,15.06a4.34,4.34,0,0,1-4.34,4.34H7.62a4.34,4.34,0,0,1-4.34-4.34V7.62A4.34,4.34,0,0,1,7.62,3.28h7.44A4.34,4.34,0,0,1,19.4,7.62Z"/><path id="Path_3" data-name="Path 3" class="cls-3" d="M11.34,6.38a5,5,0,1,0,3.51,1.45A5,5,0,0,0,11.34,6.38Zm0,8.06a3.1,3.1,0,1,1,3.1-3.1h0A3.1,3.1,0,0,1,11.34,14.44Z"/><path id="Path_4" data-name="Path 4" class="cls-3" d="M16.67,6.67a.67.67,0,0,0,0-1.33A.67.67,0,0,0,16,6h0A.67.67,0,0,0,16.67,6.67Z"/></g></g></svg>