<?xml version="1.0" encoding="utf-8"?>
<!-- Generator: Adobe Illustrator 25.4.1, SVG Export Plug-In . SVG Version: 6.00 Build 0)  -->
<svg version="1.1" id="Layer_1" xmlns="http://www.w3.org/2000/svg" xmlns:xlink="http://www.w3.org/1999/xlink" x="0px" y="0px"
	 viewBox="0 0 40.52 45.75" style="enable-background:new 0 0 40.52 45.75;" xml:space="preserve">
<style type="text/css">
	.st0{fill:#FFFFFF;}
</style>
<g>
	<g>
		<path class="st0" d="M13.51,38.31c-0.06,0-0.12-0.01-0.18-0.03c-0.06-0.02-0.11-0.06-0.16-0.12l-1.67-2l-0.34-0.34l-1.66-1.97
			c-0.08-0.1-0.13-0.21-0.13-0.33c-0.01-0.12,0.03-0.22,0.1-0.3c0.07-0.08,0.17-0.12,0.31-0.12c0.15,0,0.27,0.05,0.36,0.16
			l1.63,1.95l0.25,0.23l1.79,2.15c0.1,0.11,0.14,0.23,0.14,0.34c0,0.11-0.04,0.21-0.12,0.28C13.74,38.28,13.64,38.31,13.51,38.31z
			 M9.86,38.31c-0.13,0-0.23-0.04-0.3-0.12c-0.07-0.08-0.11-0.18-0.11-0.29c0-0.11,0.04-0.23,0.13-0.34l1.62-2.03l0.52,0.73
			l-1.52,1.91C10.11,38.26,10,38.31,9.86,38.31z M12.22,35.86l-0.66-0.56l1.54-2.04c0.05-0.06,0.1-0.11,0.16-0.13
			c0.06-0.02,0.12-0.03,0.19-0.03c0.14,0,0.24,0.04,0.31,0.13c0.07,0.09,0.1,0.19,0.1,0.31c0,0.12-0.05,0.24-0.14,0.35L12.22,35.86z
			"/>
		<path class="st0" d="M17.35,38.36c-0.44,0-0.83-0.09-1.18-0.28c-0.35-0.19-0.62-0.46-0.82-0.83c-0.2-0.36-0.3-0.81-0.3-1.34v-2.35
			c0-0.14,0.05-0.26,0.14-0.35c0.09-0.09,0.21-0.14,0.35-0.14c0.14,0,0.26,0.05,0.35,0.14c0.09,0.09,0.14,0.21,0.14,0.35v2.35
			c0,0.36,0.07,0.65,0.2,0.88c0.13,0.23,0.31,0.4,0.54,0.52c0.23,0.11,0.49,0.17,0.77,0.17c0.27,0,0.52-0.05,0.73-0.16
			c0.21-0.11,0.38-0.25,0.51-0.44c0.13-0.18,0.19-0.39,0.19-0.62h0.6c0,0.39-0.1,0.75-0.29,1.07c-0.19,0.32-0.46,0.57-0.79,0.75
			C18.16,38.27,17.78,38.36,17.35,38.36z M19.46,38.31c-0.14,0-0.26-0.05-0.35-0.14s-0.14-0.21-0.14-0.35v-4.26
			c0-0.15,0.05-0.26,0.14-0.35s0.21-0.13,0.35-0.13c0.15,0,0.26,0.04,0.35,0.13c0.09,0.09,0.13,0.21,0.13,0.35v4.26
			c0,0.14-0.04,0.26-0.13,0.35C19.73,38.27,19.61,38.31,19.46,38.31z"/>
		<path class="st0" d="M23.28,38.35c-0.4,0-0.76-0.06-1.07-0.19c-0.32-0.12-0.56-0.3-0.74-0.52c-0.18-0.22-0.27-0.48-0.27-0.76
			c0-0.29,0.08-0.53,0.24-0.73s0.4-0.38,0.71-0.52c0.31-0.14,0.68-0.25,1.11-0.33c0.43-0.09,0.73-0.2,0.88-0.32
			c0.15-0.12,0.23-0.28,0.23-0.48c0-0.2-0.1-0.35-0.3-0.45c-0.2-0.1-0.44-0.15-0.71-0.15c-0.22,0-0.44,0.03-0.66,0.1
			c-0.22,0.07-0.4,0.17-0.55,0.31c-0.1,0.09-0.2,0.15-0.31,0.18c-0.12,0.03-0.21,0.03-0.28-0.02c-0.12-0.08-0.2-0.17-0.22-0.3
			c-0.03-0.12,0-0.23,0.08-0.33c0.19-0.24,0.46-0.42,0.81-0.57c0.35-0.14,0.73-0.21,1.15-0.21c0.36,0,0.68,0.06,0.97,0.17
			c0.29,0.11,0.53,0.28,0.7,0.49c0.17,0.22,0.26,0.48,0.26,0.8c0,0.37-0.15,0.68-0.45,0.93c-0.3,0.25-0.75,0.44-1.36,0.58
			c-0.5,0.1-0.85,0.22-1.04,0.36c-0.19,0.14-0.28,0.3-0.28,0.49c0.01,0.2,0.1,0.35,0.29,0.46c0.18,0.11,0.46,0.16,0.83,0.16
			c0.33,0,0.61-0.03,0.84-0.1c0.23-0.07,0.42-0.17,0.55-0.31c0.09-0.1,0.19-0.16,0.3-0.19c0.12-0.03,0.23,0,0.35,0.1
			c0.11,0.09,0.16,0.19,0.16,0.31s-0.05,0.22-0.14,0.32c-0.21,0.21-0.5,0.38-0.88,0.52C24.1,38.28,23.7,38.35,23.28,38.35z"/>
		<path class="st0" d="M28.88,38.36c-0.44,0-0.83-0.09-1.18-0.28s-0.62-0.46-0.82-0.83c-0.2-0.36-0.3-0.81-0.3-1.34v-2.35
			c0-0.14,0.05-0.26,0.14-0.35c0.09-0.09,0.21-0.14,0.35-0.14c0.14,0,0.26,0.05,0.35,0.14c0.09,0.09,0.14,0.21,0.14,0.35v2.35
			c0,0.36,0.07,0.65,0.2,0.88c0.13,0.23,0.32,0.4,0.54,0.52c0.23,0.11,0.49,0.17,0.77,0.17c0.27,0,0.52-0.05,0.73-0.16
			c0.21-0.11,0.38-0.25,0.51-0.44c0.13-0.18,0.19-0.39,0.19-0.62h0.6c0,0.39-0.1,0.75-0.29,1.07c-0.19,0.32-0.46,0.57-0.79,0.75
			C29.69,38.27,29.31,38.36,28.88,38.36z M30.99,38.31c-0.14,0-0.26-0.05-0.35-0.14c-0.09-0.09-0.14-0.21-0.14-0.35v-4.26
			c0-0.15,0.05-0.26,0.14-0.35c0.09-0.09,0.21-0.13,0.35-0.13c0.15,0,0.26,0.04,0.35,0.13s0.13,0.21,0.13,0.35v4.26
			c0,0.14-0.04,0.26-0.13,0.35S31.14,38.31,30.99,38.31z"/>
	</g>
	<g>
		<path class="st0" d="M31.43,30.05c-0.18-2.72-1.37-5.28-3.36-7.21c-1.3-1.26-2.91-2.21-4.65-2.74L23.09,20l-0.03-0.01
			c-0.29-0.08-0.56,0.19-0.48,0.49l0.47,1.62c0.03,0.12,0.13,0.21,0.24,0.26c1.22,0.45,2.32,1.14,3.26,2.05
			c1.1,1.07,1.9,2.38,2.34,3.8c0.09,0.3-0.18,0.57-0.48,0.49c-1.51-0.42-2.89-1.2-4.02-2.29c-1.14-1.11-1.97-2.49-2.39-3.98
			l-0.14-0.5l-0.01-0.04l-0.7-2.42l0-0.02l-0.51-1.73l-0.02-0.07c-0.02-0.07-0.04-0.13-0.06-0.19c0-0.01-0.01-0.02-0.01-0.03
			l-0.02-0.06c-0.55-1.74-1.54-3.34-2.88-4.64c-1.98-1.92-4.61-3.07-7.4-3.24l-0.5-0.03c-0.39-0.02-0.71,0.3-0.68,0.69l0.03,0.5
			c0.18,2.72,1.37,5.28,3.36,7.21c1.4,1.35,3.14,2.34,5.03,2.85l0,0c0.29,0.08,0.56-0.19,0.48-0.49l-0.46-1.58l0,0l-0.01-0.03
			c-0.03-0.12-0.13-0.22-0.24-0.26c-1.22-0.45-2.34-1.15-3.28-2.06c-1.1-1.07-1.9-2.38-2.34-3.8c-0.09-0.3,0.18-0.57,0.48-0.49
			c1.51,0.42,2.89,1.2,4.02,2.29c1.08,1.04,1.88,2.33,2.32,3.73c0.01,0.03,0.02,0.05,0.03,0.08l0.07,0.22l0.13,0.44l0,0l0.71,2.46
			l0,0l0.5,1.71l0.02,0.06c0.52,1.87,1.55,3.59,2.97,4.96c1.98,1.92,4.61,3.07,7.4,3.24l0.5,0.03c0.39,0.02,0.71-0.3,0.68-0.69
			L31.43,30.05z"/>
		<path class="st0" d="M18.44,22.01c-0.1-0.36-0.46-0.58-0.83-0.52c-2.02,0.35-3.96,1.32-5.52,2.93c-0.25,0.26-0.61,0.65-1.04,1.25
			c-1.3,1.82-1.77,3.64-1.97,4.79c-0.13,0.47,0.31,0.9,0.78,0.76c1.22-0.26,3.7-0.97,5.83-3.09c0.84-0.84,2.37-2.94,2.83-5.6
			c0.02-0.11,0.01-0.22-0.02-0.32L18.44,22.01z"/>
		<path class="st0" d="M22.1,18.71c0.1,0.36,0.46,0.58,0.83,0.52c2.02-0.35,3.96-1.32,5.52-2.93c0.25-0.26,0.61-0.65,1.04-1.25
			c1.3-1.82,1.77-3.64,1.97-4.79c0.13-0.47-0.31-0.9-0.78-0.76c-1.22,0.26-3.7,0.97-5.83,3.09c-0.84,0.84-2.37,2.94-2.83,5.6
			c-0.02,0.11-0.01,0.22,0.02,0.32L22.1,18.71z"/>
	</g>
</g>
</svg>
